<svg xmlns="http://www.w3.org/2000/svg" viewBox="0 0 85.98 87.77"><defs><style>.cls-1,.cls-3{fill:#fff;}.cls-2,.cls-4{fill:none;}.cls-2,.cls-3,.cls-4{stroke:#ff5e45;stroke-width:3px;}.cls-2{stroke-linecap:round;stroke-linejoin:round;}.cls-3,.cls-4{stroke-miterlimit:10;}</style></defs><g id="Layer_2" data-name="Layer 2"><g id="Layer_1-2" data-name="Layer 1"><path class="cls-1" d="M77.44,58a9.15,9.15,0,0,0,2.83,10.68A9.14,9.14,0,0,0,67.39,80.28a9.15,9.15,0,0,0-15.61,7.49,9.14,9.14,0,0,0-17.59,0,9.15,9.15,0,0,0-15.6-7.49A9.14,9.14,0,0,0,5.71,68.72,9.14,9.14,0,0,0,0,52.37a9.13,9.13,0,0,0,5.74-8.48A9.14,9.14,0,0,0,0,35.4,9.14,9.14,0,0,0,5.71,19.05,9.14,9.14,0,0,0,18.59,7.49,9.15,9.15,0,0,0,34.19,0,9.16,9.16,0,0,0,43,6.64,9.15,9.15,0,0,0,51.78,0,9.15,9.15,0,0,0,67.39,7.49,9.14,9.14,0,0,0,80.27,19.05,9.14,9.14,0,0,0,86,35.4a9.14,9.14,0,0,0,0,17A9.14,9.14,0,0,0,77.44,58Z"/><polyline class="cls-2" points="34.09 24.55 42.92 33.38 51.88 24.41"/><polyline class="cls-2" points="33.12 52.32 27.15 55.21 27.15 62.41"/><polyline class="cls-2" points="32.95 40.86 26.98 37.97 26.98 30.77"/><polyline class="cls-2" points="30.76 46.19 26.4 46.19 22.85 48.5"/><polyline class="cls-2" points="52.85 52.32 58.82 55.21 58.82 62.41"/><polyline class="cls-2" points="53.03 40.86 59 37.97 59 30.77"/><polyline class="cls-2" points="55.22 46.19 59.58 46.19 63.12 48.5"/><path class="cls-3" d="M53.58,45.86c0,9.39-4.74,17-10.59,17s-10.58-7.61-10.58-17a25,25,0,0,1,1.34-8.26c1.8-5.22,5.26-8.74,9.24-8.74s7.45,3.52,9.25,8.74A25,25,0,0,1,53.58,45.86Z"/><path class="cls-3" d="M52.24,37.6A11.22,11.22,0,0,1,43,42.86a11.22,11.22,0,0,1-9.24-5.26c1.8-5.22,5.26-8.74,9.24-8.74S50.44,32.38,52.24,37.6Z"/><polyline class="cls-4" points="42.99 63.36 42.99 58.58 42.99 49.04 42.99 42.36"/></g></g></svg>